<svg width="50" height="48" viewBox="0 0 58 58" fill="none" xmlns="http://www.w3.org/2000/svg">
<path d="M35.206 0.18125C40.5275 3.01842 49.5562 11.9818 53.1667 16.8103C50.0588 14.6353 43.3937 12.8059 38.4468 13.9611C38.9833 10.4134 37.9997 3.00392 35.206 0.18125V0.18125ZM53.1667 26.5833V58H4.83334V0H25.1551C36.8928 0 33.2147 19.3333 33.2147 19.3333C40.4864 17.5329 53.1667 18.3208 53.1667 26.5833ZM14.5 38.6667H26.5833V29H14.5V38.6667ZM43.5 43.5H14.5V45.9167H43.5V43.5ZM43.5 36.25H31.4167V38.6667H43.5V36.25ZM43.5 29H31.4167V31.4167H43.5V29Z" fill="white"/>
</svg>
