<svg width="58" height="58" viewBox="0 0 58 58" fill="none" xmlns="http://www.w3.org/2000/svg">
<g clip-path="url(#clip0)">
<path d="M56.9516 29.5457C55.9427 28.2615 54.2462 28.0599 52.8812 28.0279C51.6923 27.9998 50.4955 28.038 49.338 28.0749C47.756 28.1252 46.1201 28.1774 44.5392 28.0554C44.3354 28.0398 44.1208 28.0331 43.9132 28.0266C43.3614 28.0095 42.5274 27.9836 42.4002 27.7165C42.1085 27.1036 42.2314 26.7467 42.3493 26.5315C42.9436 25.4467 45.4778 24.5272 49.1282 24.072C50.7294 23.8723 51.9012 23.3662 52.7106 22.5251C53.4323 21.775 53.7574 20.9114 53.6262 20.0937C53.5288 19.4854 53.1734 18.9132 52.6258 18.4824C51.5654 17.6482 49.9924 17.4908 48.4185 18.0614C47.6056 18.3562 46.8847 18.7866 46.1876 19.2029C45.8406 19.4101 45.5129 19.6059 45.1764 19.7846C44.0731 20.3708 42.8879 20.7652 41.6535 20.9569C41.2077 21.0261 40.6449 21.0813 40.2493 20.8915C40.2235 20.8789 40.0929 20.8028 40.058 20.5423C39.9854 20.0007 40.2347 17.807 46.4875 12.3184C47.3305 11.5785 48.0375 10.7752 48.5891 9.93078C49.2341 8.94297 49.5683 8.03842 49.6106 7.16559C49.6707 5.92698 49.0906 4.77174 48.1324 4.22244C47.3 3.74541 46.2068 3.73057 45.2073 4.18347C44.3725 4.5616 43.7214 5.18986 43.1946 5.75456C40.8031 8.31845 39.178 11.4843 38.0296 13.956C37.6109 14.8573 37.0771 15.6903 36.5122 16.5724L36.3375 16.8453C35.6064 17.9902 34.3758 18.7707 33.6507 18.5502C33.0052 18.3539 32.6432 17.193 32.6819 15.4448C32.6921 14.9867 32.8849 14.497 33.089 13.9785C33.3008 13.4407 33.5197 12.8845 33.5934 12.2537C33.7741 10.708 32.9576 8.89539 31.3237 8.66226C30.3846 8.52791 29.3735 9.00063 28.7504 9.86598C28.1963 10.6355 28.0229 11.5583 27.9406 12.1853C27.7939 13.303 27.8142 14.4334 28.0008 15.545C28.0526 15.8536 28.1166 16.1633 28.1785 16.4628C28.399 17.5297 28.6073 18.5373 28.2599 19.358C27.9282 20.1411 27.0122 20.749 25.9262 20.9067C24.1445 21.1659 22.1114 20.33 20.4885 18.6718C20.3934 18.5746 20.2975 18.4728 20.2036 18.3693C19.8881 18.0219 19.3508 17.996 19.0033 18.3113C18.656 18.6267 18.63 19.164 18.9452 19.5114C19.0534 19.6305 19.164 19.7478 19.2737 19.8602C21.023 21.6474 23.2126 22.6517 25.2838 22.6516C25.5823 22.6516 25.8785 22.6307 26.1703 22.5883C27.8573 22.3433 29.2575 21.3595 29.8244 20.0207C30.3785 18.7122 30.0937 17.3345 29.8424 16.119C29.7809 15.8216 29.7229 15.5409 29.6763 15.2637C29.5176 14.3184 29.5003 13.3572 29.6252 12.4065C29.718 11.6994 29.8781 11.2076 30.1291 10.8589C30.3794 10.5116 30.7718 10.3005 31.0836 10.3445C31.6498 10.4253 31.9903 11.3312 31.9056 12.0565C31.8575 12.4678 31.6876 12.8993 31.5078 13.3562C31.2698 13.9609 31 14.6461 30.983 15.407C30.9417 17.2684 31.285 19.6068 33.156 20.1759C34.844 20.6893 36.7545 19.3492 37.7695 17.7599L37.9428 17.4889C38.5134 16.5982 39.1034 15.6771 39.5704 14.6719C40.6658 12.3146 42.2091 9.30218 44.437 6.91365C44.8698 6.44954 45.3478 5.9852 45.9083 5.73123C46.4043 5.50659 46.9324 5.49322 47.2871 5.69656C47.6844 5.92437 47.9418 6.49463 47.9132 7.08335C47.8859 7.64624 47.6416 8.27371 47.1661 9.00165C46.699 9.71679 46.0934 10.4032 45.3664 11.0413C40.365 15.4314 38.0781 18.6157 38.3748 20.7764C38.5249 21.8695 39.2847 22.3134 39.514 22.4234C40.3306 22.8151 41.2253 22.7427 41.9142 22.6359C43.3366 22.415 44.7023 21.9607 45.9735 21.2852C46.3477 21.0865 46.7092 20.8706 47.0587 20.6618C47.7163 20.269 48.3375 19.8981 48.9975 19.6588C49.7838 19.3738 50.8736 19.2662 51.5754 19.8178C51.7832 19.9814 51.9192 20.1799 51.9485 20.3627C51.9919 20.633 51.819 21.0009 51.4862 21.3469C50.9575 21.8963 50.1174 22.2362 48.9179 22.3858C44.4773 22.9396 41.766 24.0598 40.8591 25.7151C40.5434 26.2915 40.2883 27.2333 40.8661 28.4469C41.4389 29.6498 42.8386 29.6932 43.8605 29.7251C44.0576 29.7312 44.2438 29.7369 44.4087 29.7497C46.0818 29.8788 47.7648 29.8252 49.3921 29.7733C50.5267 29.7372 51.6995 29.6997 52.8414 29.7267C53.8335 29.7501 55.0455 29.8699 55.6157 30.5956C56.0482 31.1462 56.0538 31.9941 55.9823 32.6083C55.9402 32.9712 55.8795 33.2238 55.7856 33.4272C55.5347 33.9707 54.8965 34.3768 54.1599 34.4618C53.4791 34.5403 52.7083 34.3851 51.8036 33.9866C51.4303 33.8222 51.0626 33.6304 50.752 33.4646C50.3383 33.2436 49.8235 33.3997 49.6024 33.8136C49.3812 34.2274 49.5376 34.7422 49.9514 34.9633C50.29 35.1442 50.6936 35.3544 51.1188 35.5417C52.0914 35.97 52.9765 36.1809 53.8083 36.1809C53.9929 36.1809 54.1751 36.1705 54.3547 36.1498C55.6874 35.9961 56.8269 35.2256 57.3285 34.1394C57.5496 33.6603 57.6274 33.1742 57.6705 32.8044C57.8275 31.4493 57.5857 30.353 56.9516 29.5457Z" fill="black"/>
<path d="M47.5374 31.9113C43.2784 30.1618 40.2729 30.0001 38.6041 31.4312C38.0865 31.8751 37.7584 32.5231 37.6801 33.2558C37.5179 34.7763 38.3486 36.0342 39.0816 37.1442C39.1703 37.2785 39.2586 37.4121 39.3443 37.5453C39.8056 38.2611 40.5056 38.9529 41.1824 39.622C41.7081 40.1416 42.2047 40.6324 42.5423 41.0836L42.621 41.1884C43.1228 41.8558 44.4557 43.6284 44.2271 44.8357C44.181 45.0791 44.0545 45.4427 43.4912 45.7892C43.4814 45.7953 43.3826 45.8457 42.9547 45.7529C42.7041 45.6985 42.5208 45.6337 42.3776 45.5488C42.0752 45.3695 41.8177 45.0171 41.6524 44.5563C40.8029 42.1873 39.6736 39.7795 38.5542 37.9503C37.0277 35.4559 35.646 34.1957 34.3303 34.0975C33.6637 34.0477 33.0623 34.2416 32.6357 34.643C31.6757 35.5469 31.5546 36.8896 31.5566 37.9583C31.5591 39.4426 31.7158 40.9314 32.0225 42.3834C32.1067 42.7824 32.2025 43.1796 32.2952 43.5637C32.3949 43.9772 32.4981 44.4048 32.583 44.8213C32.7438 45.6083 32.8519 46.4153 32.9045 47.2202C32.934 47.6696 33.3076 48.0144 33.7514 48.0144C33.7701 48.0144 33.7889 48.0138 33.8077 48.0125C34.276 47.9819 34.6307 47.5775 34.6001 47.1093C34.5424 46.2277 34.4238 45.3436 34.2479 44.4814C34.1568 44.0355 34.0502 43.5931 33.947 43.1653C33.8572 42.7928 33.7643 42.4077 33.685 42.0324C33.4026 40.6946 33.2582 39.323 33.2558 37.9555C33.2545 37.2292 33.3153 36.337 33.8007 35.8802C33.9058 35.7813 34.1174 35.7854 34.204 35.7919C34.7295 35.8311 35.7676 36.6517 37.105 38.8373C38.1509 40.5465 39.253 42.8988 40.0531 45.1299C40.2642 45.7188 40.6886 46.523 41.5115 47.0107C41.8161 47.1913 42.1601 47.3193 42.5943 47.4136C43.1105 47.5256 43.7802 47.6067 44.3817 47.2366C45.2229 46.7191 45.7326 46.0178 45.8966 45.1522C46.265 43.2072 44.7211 41.154 43.9792 40.1672L43.9029 40.0657C43.4894 39.513 42.9239 38.9539 42.377 38.4135C41.7654 37.8089 41.1329 37.1838 40.7726 36.6248C40.6834 36.4863 40.5915 36.3475 40.4994 36.2078C39.8683 35.2521 39.2723 34.3494 39.3697 33.4361C39.4017 33.1358 39.5227 32.8817 39.7103 32.721C40.8065 31.7808 43.424 32.0584 46.8918 33.483C47.3259 33.6616 47.8223 33.454 48.0005 33.0199C48.1788 32.586 47.9715 32.0896 47.5374 31.9113Z" fill="black"/>
<path d="M33.7626 49.7481C33.2971 49.6919 32.8739 50.0254 32.8186 50.4913C32.6398 51.9949 32.2857 53.1779 31.7361 54.1079C31.0884 55.2041 30.1266 55.9745 29.0973 56.2217C28.0262 56.4791 26.8411 56.0933 26.2792 55.3047C26.0551 54.9905 25.901 54.6017 25.7387 54.1148C25.4914 53.3736 25.3549 52.8086 25.296 52.2829C25.0629 50.2011 26.0012 48.0816 26.8289 46.2116C26.9123 46.023 27.006 45.8144 27.107 45.5894C27.7106 44.2449 28.6227 42.2129 29.1502 40.4412C29.4285 39.5063 30.2753 36.661 28.4824 35.8384C27.1879 35.2446 25.8829 36.2573 25.3254 36.6897C24.1558 37.5971 23.3135 38.7758 22.499 39.9157C21.9165 40.7309 21.3663 41.5009 20.7121 42.1665C19.5606 43.3379 17.9999 44.2581 16.0732 44.9015C15.4818 45.099 14.7015 45.3244 13.9384 45.3197C13.2403 45.3148 12.6251 45.1115 12.2061 44.747C11.9496 44.524 11.7944 44.2443 11.8012 44.0171C11.8063 43.8412 11.9021 43.6171 12.0938 43.3314C12.7484 42.3562 13.8467 41.5286 15.3581 40.8715C16.15 40.5271 16.9643 40.2569 17.8262 39.9709C18.4333 39.7695 19.0611 39.561 19.6773 39.3252C21.2639 38.7178 22.5394 38.0102 23.577 37.162C24.8725 36.1028 25.8051 34.8038 26.2735 33.4056C26.6636 32.2413 26.5778 31.1898 26.0319 30.4447C25.778 30.0982 25.4239 29.8144 24.9794 29.6012C23.6804 28.9783 22.0277 29.1425 20.3249 30.0638C19.8274 30.333 19.3585 30.6382 18.905 30.9333C18.2307 31.3723 17.5937 31.7868 16.9079 32.0622C16.1147 32.3807 15.2454 32.5097 14.3941 32.4355C13.8444 32.3876 12.8276 32.1991 12.1916 31.476C11.7174 30.9367 11.6013 30.1251 11.9274 29.6284C12.1231 29.3303 12.497 29.076 13.0391 28.8725C14.0573 28.4902 15.2841 28.3735 16.7912 28.516C17.1565 28.5506 17.5204 28.5968 17.9057 28.6458C19.3107 28.8245 20.7635 29.0093 22.2147 28.5907L22.3131 28.5625C23.0308 28.3573 24.2318 28.0139 24.4385 26.8603C24.6017 25.9484 24.2864 24.9648 23.5733 24.1614C23.012 23.5293 22.2999 23.0989 21.6186 22.7123C20.9795 22.3497 20.3223 21.9937 19.6868 21.6496C17.1608 20.282 14.5491 18.8678 12.6527 16.7798C12.2507 16.3372 11.9385 15.778 11.6086 14.9099C11.002 13.3132 12.231 12.1581 12.7475 11.918C13.1176 11.7461 13.6832 11.8756 14.1237 12.233C14.6121 12.6294 14.9677 13.2363 15.3492 13.9306C15.447 14.1084 15.5444 14.2867 15.6418 14.4651C15.9914 15.1049 16.3528 15.7666 16.7325 16.4103C16.9709 16.8145 17.4918 16.9489 17.8959 16.7105C18.3 16.4722 18.4344 15.9513 18.196 15.5471C17.8305 14.9275 17.476 14.2783 17.133 13.6505C17.0349 13.4708 16.9368 13.2913 16.8382 13.1122C16.4764 12.4537 15.9807 11.5517 15.1942 10.9135C14.2389 10.1382 12.997 9.92784 12.0309 10.3771C10.6729 11.0087 9.09454 13.0777 10.0202 15.5135C10.2924 16.2301 10.6947 17.1514 11.3948 17.9222C13.4857 20.2242 16.2268 21.7084 18.8776 23.1438C19.506 23.484 20.1556 23.8358 20.78 24.19C21.3605 24.5195 21.9138 24.8514 22.3027 25.2894C22.655 25.6864 22.8325 26.17 22.767 26.5535C22.6627 26.695 22.0916 26.8583 21.846 26.9285L21.7434 26.9579C20.6299 27.2794 19.4109 27.1244 18.1201 26.9601C17.7383 26.9115 17.3438 26.8613 16.9511 26.8242C15.182 26.657 13.707 26.8066 12.4418 27.2816C11.543 27.6191 10.91 28.0817 10.5069 28.6958C9.75825 29.8362 9.9301 31.4773 10.9156 32.5981C11.677 33.4639 12.8598 34.0073 14.2462 34.1283C15.3625 34.2257 16.5018 34.0566 17.5412 33.6389C18.3812 33.3016 19.1187 32.8216 19.8318 32.3575C20.2765 32.0681 20.6964 31.7947 21.1335 31.5583C21.8349 31.1788 23.172 30.6188 24.2444 31.1334C24.4314 31.2231 24.5756 31.3323 24.6613 31.4492C24.956 31.8513 24.7603 32.5737 24.6624 32.8658C24.2959 33.9597 23.5486 34.9905 22.5015 35.8465C21.6067 36.578 20.4842 37.1969 19.0696 37.7384C18.4894 37.9606 17.8802 38.1628 17.291 38.3583C16.4313 38.6437 15.5425 38.9385 14.6805 39.3134C12.8666 40.1022 11.5216 41.1354 10.683 42.3844C10.4433 42.7414 10.1223 43.2939 10.1025 43.9673C10.0807 44.7125 10.4409 45.4641 11.0909 46.0294C11.8158 46.6598 12.8227 47.0113 13.9264 47.0191C13.9392 47.0191 13.9521 47.0192 13.9649 47.0192C14.9671 47.0192 15.9044 46.7495 16.6114 46.5134C18.795 45.7842 20.5823 44.7225 21.9237 43.3579C22.6714 42.5973 23.2865 41.7364 23.8813 40.9039C24.6591 39.8156 25.3936 38.7874 26.367 38.0324C27.2336 37.36 27.61 37.308 27.7738 37.383C27.7783 37.3851 28.1733 37.7667 27.5214 39.9566C27.0262 41.6201 26.1769 43.5122 25.5567 44.8936C25.4545 45.1215 25.3595 45.3328 25.2749 45.5239C24.4053 47.4884 23.323 49.9335 23.6073 52.4722C23.7005 53.3039 23.9339 54.0743 24.1267 54.6524C24.3091 55.1993 24.5285 55.7762 24.8954 56.2909C25.663 57.3679 27.0202 58 28.4229 58C28.78 58 29.1402 57.959 29.4942 57.8739C30.9683 57.5199 32.3186 56.4623 33.1992 54.9723C33.8713 53.835 34.2987 52.4349 34.506 50.692C34.5614 50.2261 34.2287 49.8034 33.7626 49.7481Z" fill="black"/>
<path d="M33.6019 1.11044C33.0027 0.294817 32.0051 -0.110503 30.9335 0.0262275C29.7875 0.172473 28.8138 0.918769 28.3928 1.97398C28.078 2.76287 27.4402 4.74789 28.3148 6.14012C28.6444 6.66484 29.326 7.31031 30.7005 7.40536C30.7641 7.40977 30.8274 7.41193 30.8908 7.41193C31.9875 7.41193 33.0359 6.76169 33.4861 5.78192C34.6142 3.32633 34.1718 1.88619 33.6019 1.11044ZM31.942 5.07278C31.7634 5.46157 31.2686 5.74148 30.8178 5.71044C30.0166 5.65505 29.8186 5.33979 29.7536 5.23625C29.4439 4.74336 29.5292 3.71024 29.9708 2.60394C30.2007 2.02768 30.73 1.7652 31.1484 1.71185C31.2115 1.70381 31.2736 1.69995 31.3346 1.69995C31.7088 1.69995 32.036 1.84926 32.2324 2.1166C32.6499 2.68493 32.5439 3.76235 31.942 5.07278Z" fill="black"/>
<path d="M8.25502 29.657C7.9205 28.8317 7.1648 28.1582 6.18152 27.8091C4.69539 27.2816 2.96015 27.5028 1.76107 28.3728C0.777109 29.0867 0.252617 30.1639 0.284449 31.4059C0.31277 32.5129 0.927546 33.6271 1.88874 34.3137C2.43203 34.7017 3.24754 35.0762 4.37174 35.0762C4.91957 35.0762 5.5408 34.9873 6.23941 34.7677C7.61441 34.3353 8.43309 33.0272 8.48554 31.1789C8.50288 30.5715 8.4297 30.0879 8.25502 29.657ZM6.78712 31.1305C6.76911 31.765 6.6078 32.8705 5.72976 33.1466C4.571 33.511 3.58433 33.4365 2.87666 32.931C2.23504 32.4728 1.99443 31.7996 1.9831 31.3623C1.96565 30.6774 2.22665 30.1343 2.75907 29.7482C3.49506 29.214 4.66888 29.0753 5.6133 29.4105C6.13145 29.5944 6.53043 29.9251 6.6803 30.2952C6.76356 30.5007 6.79743 30.7661 6.78712 31.1305Z" fill="black"/>
<path d="M52.0377 49.8248C51.433 48.7374 50.4122 47.9545 49.2371 47.677C48.3434 47.4661 47.4666 47.594 46.8313 48.0282C46.0453 48.5653 45.5472 49.5064 45.4289 50.6782C45.3236 51.7196 45.5398 52.8394 46.0219 53.7501C46.7155 55.0606 48.0762 55.9024 49.5727 55.947C49.6132 55.9483 49.6536 55.9488 49.6937 55.9488C50.896 55.9488 51.9378 55.4092 52.4968 54.4903C53.0058 53.6536 53.3392 52.1651 52.0377 49.8248ZM51.0453 53.6072C50.7896 54.0277 50.2596 54.2668 49.6237 54.2486C48.9285 54.2277 48.0119 53.8771 47.5239 52.9551C46.8682 51.7165 47.0001 49.971 47.7901 49.4311C47.9403 49.3285 48.1527 49.2755 48.3954 49.2755C48.5376 49.2755 48.6902 49.2938 48.8468 49.3307C49.5474 49.4961 50.1853 49.9896 50.5529 50.6507C51.2483 51.9009 51.4278 52.9786 51.0453 53.6072Z" fill="black"/>
</g>
<defs>
<clipPath id="clip0">
<rect width="58" height="58" fill="white"/>
</clipPath>
</defs>
</svg>
