<svg width="56" height="56" viewBox="0 0 58 58" fill="none" xmlns="http://www.w3.org/2000/svg">
<path d="M45.9167 0H12.0833C5.41092 0 0 5.41092 0 12.0833V45.9167C0 52.5891 5.41092 58 12.0833 58H45.9167C52.5915 58 58 52.5891 58 45.9167V12.0833C58 5.41092 52.5915 0 45.9167 0ZM11.8779 36.25L18.5093 24.5896L14.0481 16.9481H22.0037L26.4263 24.5654L19.7949 36.25H11.8779ZM33.1204 32.7579L41.6126 48.3333H33.7536L25.1744 32.7579L38.1761 9.66667H46.1245L33.1204 32.7579Z" fill="#39A7D2"/>
<rect x="0.5" y="0.5" width="57" height="57" stroke="white"/>
</svg>
